<svg xmlns="http://www.w3.org/2000/svg" viewBox="0 0 140 170" preserveAspectRatio="xMaxYMax meet">
  <title>Cat</title>
  <desc>Stick Figure of a Cat</desc>
  <!-- 在这里绘制图像 -->
  <circle cx="70" cy="95" r="50" style="stroke: black; fill: none;" />
  <circle cx="55" cy="80" r="5" stroke="black" fill="#393" />
  <circle cx="85" cy="80" r="5" stroke="black" fill="#393" />
  <g>
    <line x1="75" y1="95" x2="135" y2="85" style="stroke: black;" />
    <line x1="75" y1="95" x2="135" y2="105" style="stroke: black;" />
  </g>
  <g transform="scale(-1 1) translate(-140, 0)">
    <line x1="75" y1="95" x2="135" y2="85" style="stroke: black;" />
    <line x1="75" y1="95" x2="135" y2="105" style="stroke: black;" />
  </g>
  <polyline points="108 62, 90 10, 70 45, 50 10, 32 62" style="stroke: black; fill: none;" />
  <polyline points="35 110 45 120 95 120 105 110" stroke="black" fill="none" />
  <path d="M75 90 65 90 A5 10 0 0 0 75 90" style="stroke: black; fill: #fcc" />
  <text x="60" y="165" style="font-family: sans-serif; font-size: 14pt; stroke: none; fill: black;">Cat</text>
</svg>
